<svg width="1024" height="1008" viewBox="0 0 1024 1008" fill="none" xmlns="http://www.w3.org/2000/svg">
<g clip-path="url(#clip0_102_2741)">
<path d="M452.469 1009C444.882 1006.32 437.239 1007.09 429.882 1005.63C418.819 1003.44 407.711 1001.44 396.788 998.641C357.483 988.57 319.729 974.42 284.084 954.915C226.812 923.577 177.696 882.43 136.613 831.717C102.653 789.794 76.2068 743.605 58.3879 692.607C50.4306 669.834 44.1363 646.62 39.3903 622.924C32.8142 590.089 30.3715 556.964 31.0306 523.594C31.5441 497.596 34.5234 471.823 39.3418 446.231C46.2029 409.789 56.7791 374.511 71.6543 340.569C95.2621 286.701 128.43 239.259 169.555 197.394C197.246 169.204 228.5 145.458 262.395 125.135C298.449 103.517 336.708 87.0146 377.02 75.2358C407.433 66.3493 438.453 60.6297 470.018 57.8324C509.527 54.3311 548.879 55.6826 588.041 61.8248C655.084 72.3396 717.296 95.7784 774.334 132.569C824.824 165.136 868.1 205.394 903.665 254.018C933.659 295.026 956.06 339.805 971.716 387.94C982.862 422.205 989.518 457.425 992.494 493.445C995.683 532.048 993.882 570.351 987.923 608.47C979.063 665.146 960.107 718.361 931.862 768.314C902.494 820.254 864.699 865.091 818.729 903.022C783.3 932.255 744.439 955.82 701.941 973.471C668.433 987.387 633.976 997.961 598.35 1004.64C588.237 1006.54 577.916 1007.33 567.345 1008.81C528.979 1009 490.958 1009 452.469 1009ZM790.113 886.593C814.168 867.938 835.971 846.923 855.585 823.664C922.1 744.79 957.713 653.691 962.52 550.718C964.392 510.624 960.482 470.879 951.324 431.756C933.443 355.364 898.036 288.057 845.137 230.19C793.786 174.018 731.983 133.463 660.013 108.425C620.126 94.5484 579.113 86.4754 536.995 84.4589C514.044 83.36 491.066 83.8173 468.125 86.1187C431.675 89.7754 396.176 97.5415 361.762 110.004C275.53 141.231 205.062 193.882 150.717 267.627C95.1341 343.049 66.8484 428.174 63.4588 521.632C62.3507 552.186 65.2727 582.523 70.6265 612.586C81.2807 672.414 103.58 727.668 136.85 778.468C175.877 838.058 226.279 885.735 287.897 921.461C330.717 946.288 376.444 963.467 425.025 973.158C447.084 977.559 469.324 980.54 491.739 981.451C532.128 983.091 572.194 980.146 611.746 971.183C677.288 956.329 736.505 928.222 790.113 886.593Z" fill="white"/>
<path d="M677.7 648.315C686.53 658.059 695.116 667.549 703.602 676.928C702.738 679.688 700.479 679.694 698.714 680.364C673.067 690.099 648.423 701.716 626.597 718.646C614.72 727.86 604.17 738.41 598.607 752.578C588.618 778.026 593.71 801.097 611.931 821.098C627.358 838.033 646.819 847.473 669.619 849.942C675.721 850.603 675.821 851.09 675.771 856.989C675.657 870.476 675.915 883.966 676.019 897.454C676.071 904.315 676.066 904.324 669.037 904.329C640.039 904.348 611.041 904.301 582.043 904.449C578.117 904.469 575.066 903.376 572.084 900.871C553.905 885.592 533.389 874.652 509.942 870.458C465.594 862.523 425.575 872.089 391.126 901.938C388.344 904.348 385.611 904.779 382.052 904.715C363.893 904.389 345.727 904.432 327.564 904.388C316.065 904.36 304.563 904.284 293.068 904.492C289.753 904.552 288.704 903.532 288.739 900.264C288.897 885.433 288.927 870.6 288.852 855.768C288.835 852.282 289.962 850.918 293.637 850.476C316.01 847.781 336.218 839.837 353.205 824.677C365.801 813.435 375.436 800.387 377.99 783.093C379.816 770.719 376.296 759.971 368.035 750.867C359.193 741.122 347.546 736.25 335.038 733.234C323.687 730.497 312.205 728.479 300.506 728.135C295.693 727.994 292.306 726.795 292.731 721.032C292.966 717.852 290.63 717.432 288.169 716.967C267.067 712.974 245.961 708.88 225.281 703.081C183.708 691.424 145.346 673.421 113.233 643.843C101.514 633.049 91.7897 620.58 84.42 606.378C83.5213 604.646 82.2256 603.007 82.4644 600.774C83.8728 599.088 85.8379 599.717 87.5557 599.716C148.885 599.675 210.215 599.699 271.545 599.612C275.437 599.606 277.057 600.644 277.455 604.862C279.142 622.754 281.247 640.606 283.432 658.488C283.577 648.393 284.096 638.314 284.633 628.234C285.289 615.926 285.665 603.598 285.862 591.275C285.936 586.569 287.647 584.917 292.41 584.97C323.401 585.315 354.405 586.022 385.384 585.463C423.048 584.784 460.691 586.001 498.346 585.629C536.669 585.25 574.997 585.288 613.321 584.95C618.101 584.908 621.21 586.371 624.328 590.124C632.515 599.982 640.649 609.919 649.669 619.063C650.904 620.315 652.608 621.374 652.377 624.519C595.42 626.044 538.396 627.571 481.372 629.099C481.346 629.392 481.321 629.686 481.296 629.979C483.289 630.191 485.281 630.571 487.277 630.591C526.762 631.004 566.215 632.871 605.707 633.073C624.523 633.169 643.333 634.17 662.149 634.665C664.734 634.733 666.473 635.757 668.093 637.675C671.099 641.233 674.322 644.608 677.7 648.315ZM488.503 832.034C498.947 832.436 509.297 833.677 519.539 835.873C470.038 815.899 414.412 836.668 393.722 870.232C421.096 845.617 452.194 833.429 488.503 832.034ZM139.08 641.495C135.9 639.267 132.72 637.039 129.54 634.811C150.766 660.075 224.265 693.341 251.354 690.141C212.366 677.546 174.119 664.115 139.08 641.495ZM303.52 655.068C304.388 636.685 305.257 618.302 306.121 600.016C298.498 598.694 297.904 599.112 298.082 605.535C298.83 632.505 299.609 659.474 300.39 686.444C300.407 687.03 300.169 687.761 301.338 688.263C302.036 677.417 302.725 666.707 303.52 655.068ZM391.173 783.505C387.327 808.972 372.408 827.143 351.755 842.369C381.171 831.791 404.451 792.147 392.37 774.219C392.004 777.053 391.643 779.851 391.173 783.505Z" fill="white"/>
<path d="M687.707 637.271C664.445 611.114 641.495 585.154 618.364 559.356C583.334 520.289 548.252 481.268 513.049 442.356C491.593 418.64 470.731 394.384 448.593 371.286C443.396 365.863 443.386 365.804 448.654 360.721C466.753 343.255 484.93 325.868 502.941 308.311C505.757 305.566 507.422 306.731 509.534 308.86C522.322 321.754 535.251 334.508 547.943 347.495C570.763 370.846 593.438 394.339 616.192 417.754C668.552 471.634 720.729 525.692 773.351 579.313C814.542 621.287 856.295 662.71 897.782 704.393C900.954 707.58 903.808 711.106 907.154 714.089C912.802 719.125 913.291 725.125 911.361 731.866C908.144 743.096 901.118 752.039 893.631 760.537C880.889 774.999 866.175 786.763 846.977 791.638C844.404 792.291 841.759 792.752 839.118 793.032C832.128 793.774 826.444 792.059 821.377 786.375C777.042 736.635 732.451 687.122 687.707 637.271ZM541.349 443.149C522.826 423.06 504.322 402.955 485.77 382.894C479.888 376.533 473.879 370.291 467.934 363.989C466.487 362.454 465.078 361.865 463.255 363.58C461.573 365.164 461.434 366.596 463.034 368.259C463.841 369.098 464.54 370.04 465.326 370.901C489.467 397.361 513.643 423.788 537.748 450.281C556.92 471.353 576.093 492.425 595.109 513.638C621.906 543.532 648.481 573.627 675.296 603.506C701.779 633.014 728.48 662.325 755.015 691.787C779.096 718.523 803.116 745.315 827.076 772.159C831.14 776.712 835.806 778.217 841.807 777.321C856.432 775.137 867.586 766.867 877.704 756.993C882.749 752.069 888.148 747.207 891.641 739.115C883.196 746.594 875.568 752.74 866.891 757.487C849.821 766.827 835.649 764.579 822.717 750.325C788.795 712.937 754.995 675.438 720.915 638.195C682.898 596.65 644.622 555.343 606.469 513.923C584.909 490.517 563.37 467.092 541.349 443.149ZM576.732 394.765C553.346 370.209 529.96 345.653 506.617 321.142C499.486 327.193 499.371 327.582 505.102 333.172C522.155 349.806 539.342 366.301 556.379 382.951C577.349 403.444 598.184 424.077 619.158 444.566C625.207 450.475 631.536 456.098 637.736 461.853C637.963 461.613 638.19 461.373 638.418 461.133C618.019 439.181 597.62 417.228 576.732 394.765Z" fill="white"/>
<path d="M633.132 154.736C639.713 157.815 642.315 162.576 641.124 168.824C639.896 175.263 633.62 181.178 627.35 181.393C615.2 181.812 603.028 181.755 590.89 182.381C569.607 183.478 548.759 186.753 529.971 197.712C509.161 209.852 498.775 228.101 499.402 252.241C499.695 263.521 503.029 274.244 507.432 284.538C509.118 288.479 508.289 290.859 505.385 293.624C482.943 314.992 460.616 336.479 438.251 357.928C437.409 358.735 436.371 359.404 435.733 360.346C432.305 365.409 428.145 365.564 422.404 364.059C392.632 356.258 364.03 380.81 366.851 411.348C367.127 414.33 367.205 417.362 367.831 420.272C368.429 423.051 367.751 425.113 365.81 427.035C352.546 440.163 339.377 453.388 326.028 466.428C321.498 470.853 316.917 470.612 312.457 466.005C283.136 435.719 253.841 405.407 224.597 375.046C219.217 369.461 219.352 365.93 224.748 360.564C234.318 351.047 244.055 341.693 253.451 332.008C256.586 328.776 259.003 328.767 262.334 331.428C271.555 338.794 280.921 345.98 290.411 353.055C282.857 342.036 273.251 332.629 265.747 321.707C267.667 319.469 269.552 320.533 271.266 320.634C283.002 321.325 294.726 321.605 305.202 315.071C322.695 304.162 329.841 288.142 327.514 267.881C327.096 264.25 328.187 262.069 330.687 259.686C358.537 233.133 386.412 206.604 414.007 179.788C427.321 166.849 440.884 154.381 457.72 146.083C475.461 137.339 494.369 133.016 513.987 131.811C550.932 129.542 585.968 138.672 620.566 150.172C624.673 151.537 628.705 153.127 633.132 154.736ZM493.62 150.939C510.093 146.216 526.915 143.928 544.082 144.036C533.446 142.246 522.868 142.256 512.211 143.202C488.553 145.302 466.513 151.833 447.079 165.914C431.375 177.292 417.696 190.927 404.156 204.698C395.374 213.63 386.757 222.724 378.066 231.745C396.934 217.152 415.039 201.765 433.026 186.24C450.829 170.875 469.979 157.87 493.62 150.939ZM332 300.382C325.073 314.026 314.219 323.219 298.659 328.472C322.611 330.893 339.026 307.77 336.141 291.802C334.697 294.801 333.512 297.261 332 300.382Z" fill="white"/>
<path d="M329.767 243.134C324.216 233.178 325.002 229.274 332.835 221.858C345.773 209.607 358.381 197.005 371.376 184.815C378.873 177.782 386.864 178.311 394.482 185.878C390.435 189.727 386.435 193.629 382.332 197.42C366.555 211.996 351.148 226.952 336.022 242.201C334.384 243.853 332.715 246.586 329.767 243.134Z" fill="white"/>
<path d="M840.202 622.193C839.825 624.931 838.663 626.352 836.623 624.3C824.22 611.824 810.967 600.193 799.401 586.887C799.318 586.792 799.391 586.563 799.391 586.327C800.52 584.688 802.316 585.124 803.887 585.116C814.362 585.065 824.838 585.18 835.311 585.037C839.527 584.98 841.285 586.434 841.073 590.886C840.584 601.176 840.486 611.484 840.202 622.193Z" fill="white"/>
</g>
<defs>
<clipPath id="clip0_102_2741">
<rect width="1024" height="1008" fill="white"/>
</clipPath>
</defs>
</svg>
