<svg width="64" height="64" viewBox="0 0 64 64" fill="none" xmlns="http://www.w3.org/2000/svg">
<path d="M61.8283 28.9288C62.1077 30.7421 62.2006 32.541 62.125 34.3428C61.9591 38.2931 61.1316 42.0903 59.4578 45.6931C58.1667 48.4719 56.5163 51.0111 54.4855 53.2989C52.7708 55.2307 50.8432 56.9266 48.6795 58.3464C46.2616 59.9331 43.6636 61.1269 40.899 61.9779C39.1219 62.525 37.3126 62.9047 35.471 63.1147C33.3052 63.3617 31.1353 63.3934 28.9601 63.1563C27.1028 62.9539 25.2757 62.6257 23.4836 62.0974C19.8147 61.0158 16.4734 59.2987 13.474 56.9259C9.70407 53.9435 6.74592 50.303 4.69834 45.9472C3.4514 43.2946 2.61316 40.5086 2.20323 37.604C1.83338 34.9834 1.82119 32.3588 2.157 29.7288C2.63016 26.0231 3.69675 22.5055 5.4853 19.2257C8.10544 14.4208 11.7484 10.5826 16.4626 7.77667C18.7649 6.40635 21.2052 5.36851 23.7851 4.64426C26.1085 3.99199 28.4699 3.62988 30.8815 3.53198C33.2345 3.43645 35.5647 3.61294 37.8679 4.06443C42.5838 4.98889 46.8427 6.93273 50.6415 9.88712C55.3067 13.5154 58.6112 18.1119 60.5501 23.6948C61.1393 25.3913 61.5602 27.1266 61.8283 28.9288ZM13.0265 12.8086C12.2743 13.4988 11.5525 14.2178 10.8766 14.9845C8.43536 17.7533 6.6481 20.8979 5.45098 24.3832C4.81772 26.2268 4.42359 28.1227 4.17918 30.0565C3.91013 32.1852 3.90017 34.3088 4.13758 36.4393C4.39809 38.7771 4.92501 41.0517 5.76813 43.2455C6.93581 46.2838 8.56837 49.0533 10.6872 51.5298C12.4594 53.6012 14.4938 55.3765 16.779 56.8595C18.9316 58.2565 21.2492 59.2958 23.7056 60.0435C25.8272 60.6893 27.9854 61.1199 30.1987 61.2255C32.0075 61.3118 33.8164 61.2924 35.6203 61.0615C37.568 60.8121 39.4764 60.3962 41.3219 59.7342C44.8044 58.4851 47.9841 56.7099 50.7577 54.2319C52.8248 52.3851 54.5733 50.2765 56.0166 47.9192C57.6653 45.2264 58.8645 42.344 59.5224 39.2465C59.8952 37.491 60.107 35.7149 60.165 33.9232C60.2109 32.506 60.0905 31.095 59.9121 29.6889C59.4732 26.2299 58.3531 22.9882 56.7063 19.9336C55.6302 17.9375 54.2644 16.1317 52.7004 14.4876C50.8555 12.5481 48.8293 10.8303 46.5074 9.47105C44.1635 8.09889 41.6734 7.09291 39.0567 6.39009C37.5764 5.99248 36.0641 5.78134 34.5408 5.61811C32.6978 5.42063 30.8586 5.46448 29.025 5.65866C27.006 5.87248 25.0211 6.29042 23.0874 6.91455C19.3158 8.13185 15.9735 10.0922 13.0265 12.8086Z" fill="white"/>
<path d="M7.0096 44.1033C6.62114 42.4976 6.36099 40.8962 6.21335 39.2778C6.03059 37.2744 5.95406 35.2666 6.11973 33.259C6.26246 31.5292 6.55286 29.828 7.36825 28.2655C7.57596 27.8675 7.73228 27.4561 7.88657 27.0357C8.44309 25.519 9.34596 24.2597 10.7548 23.4112C11.061 23.2267 11.2381 22.9265 11.4549 22.6635C11.8746 22.1544 12.3814 21.8016 13.0448 21.6985C13.6032 21.6117 14.1192 21.7721 14.6215 21.9811C14.8179 22.0628 14.9838 22.0694 15.1851 21.9938C16.2518 21.5933 17.1654 20.9827 17.8816 20.0887C17.9888 19.9549 18.0883 19.8327 17.9696 19.645C17.8634 19.4769 18.0362 19.406 18.1263 19.3209C18.838 18.6482 19.2987 17.846 19.4378 16.8654C19.5342 16.1862 19.6397 15.5057 19.8621 14.8542C20.3503 13.4235 21.078 12.159 22.4012 11.3282C22.6174 11.1924 22.6417 10.9805 22.6688 10.7614C22.7066 10.4545 22.7762 10.4123 23.046 10.5625C23.4043 10.7621 23.7105 10.7746 24.0821 10.5223C24.8045 10.0317 25.6482 9.84938 26.5087 9.80149C29.2626 9.6482 31.4842 10.7495 33.3209 12.7362C33.831 13.288 34.2683 13.8979 34.7275 14.4903C34.8299 14.6224 34.9219 14.7463 34.8466 14.9413C34.7852 15.1001 34.9124 15.2384 34.986 15.3733C35.3213 15.9873 35.6323 16.6092 35.7408 17.3123C35.8683 18.1394 35.4972 18.7314 34.6904 18.9501C34.5517 18.9877 34.511 19.0806 34.4743 19.1878C34.2549 19.8276 33.9853 20.4505 33.8195 21.1081C33.7541 21.3674 33.6222 21.5637 33.3696 21.6681C33.0627 21.795 32.9182 22.0127 32.8719 22.3549C32.7701 23.1079 32.5821 23.8459 32.3684 24.5755C32.1897 25.1857 31.8067 25.3495 31.2192 25.0811C31.1364 25.0433 31.0656 24.9706 30.959 24.9822C30.8617 25.0509 30.8715 25.1692 30.8572 25.2635C30.8049 25.6087 30.6698 25.8364 30.2682 25.7722C30.1153 25.7478 30.0745 25.8576 30.0482 25.9776C30.0083 26.1599 29.9209 26.3225 29.7442 26.3881C29.4621 26.4928 29.4853 26.676 29.5437 26.9124C29.6858 27.4883 29.8175 28.0676 29.7073 28.6696C29.6522 28.9707 29.5344 29.248 29.4031 29.5196C29.2054 29.9288 29.1375 30.3291 29.4297 30.7254C29.454 30.7584 29.4701 30.7987 29.484 30.8377C29.5336 30.9771 29.694 31.1121 29.565 31.265C29.4467 31.4053 29.2646 31.3718 29.0963 31.357C28.4781 31.3024 27.9194 31.1052 27.3496 30.84C26.4421 30.4177 25.7479 29.7263 24.9476 29.1718C24.8542 29.1071 24.7573 29.0472 24.6367 28.9685C24.5553 29.2719 24.6648 29.4944 24.858 29.6758C25.764 30.5263 26.555 31.4796 27.3647 32.4183C27.7651 32.8825 27.9008 33.3944 27.8455 33.9754C27.8158 34.2872 27.8687 34.545 28.046 34.8224C28.6591 35.7819 29.1629 36.7977 29.4125 37.9201C29.4619 38.1425 29.4944 38.3714 29.5055 38.5988C29.5177 38.8509 29.6261 38.8946 29.8496 38.8312C30.5028 38.6457 31.1232 38.376 31.7463 38.1127C31.8902 38.0519 32.0418 38.0011 32.172 37.9178C33.249 37.2281 34.4984 37.1796 35.7024 36.9981C36.4733 36.8819 37.0029 36.5573 37.4619 35.9096C38.756 34.0833 40.1241 32.3095 41.462 30.5142C41.5042 30.4576 41.5663 30.4086 41.5548 30.2622C40.8988 30.0324 40.9007 29.4614 40.8649 28.8483C40.8083 27.8778 40.339 27.47 39.3666 27.3946C39.1174 27.3752 38.8688 27.3582 38.6395 27.24C38.4527 27.1439 38.4039 27.0327 38.5398 26.8464C38.7912 26.5016 39.0283 26.1462 39.2696 25.794C39.3563 25.6673 39.4625 25.5746 39.6242 25.5711C40.6126 25.5492 41.6016 25.4784 42.5869 25.6336C43.1964 25.7296 43.7555 25.9416 44.2308 26.3397C44.4099 26.4897 44.5181 26.4648 44.6625 26.2899C45.1284 25.7261 45.1373 25.7277 45.708 26.2036C46.1878 26.6037 46.6577 27.0156 47.1364 27.417C47.3567 27.6018 47.3942 27.7725 47.2098 28.0255C46.8673 28.4955 46.8811 28.5077 47.3067 28.8941C47.4839 29.055 47.6676 29.2088 47.848 29.3662C48.0802 29.5687 48.3038 29.7586 48.6442 29.5505C48.8034 29.4531 48.9683 29.5536 49.1014 29.6637C49.5507 30.0353 50.0021 30.4048 50.4439 30.7851C50.7204 31.0231 50.7099 31.3872 50.4344 31.733C49.9997 32.2786 49.5595 32.8198 49.1299 33.3694C48.726 33.8862 48.3377 34.4153 47.9333 34.9317C47.6125 35.3412 47.2963 35.3736 46.8939 35.06C46.4996 34.7527 46.1086 34.441 45.7074 34.143C45.5164 34.0012 45.4021 33.8354 45.4169 33.5926C45.4308 33.3635 45.3287 33.2017 45.1469 33.0642C44.7919 32.7957 44.4487 32.5116 44.0727 32.2117C42.2386 34.5492 40.4947 36.9189 38.7391 39.2562C38.7592 39.3091 38.7613 39.3335 38.7745 39.3467C39.3796 39.9489 39.2083 39.9056 39.8713 39.5139C40.8663 38.9261 41.8451 38.3105 42.8228 37.6942C43.1142 37.5106 43.4038 37.3965 43.7578 37.4169C44.1939 37.442 44.6327 37.4169 45.0699 37.4272C45.3002 37.4327 45.3866 37.3358 45.3827 37.112C45.3764 36.7476 45.3841 36.383 45.3886 36.0185C45.3908 35.8398 45.451 35.7262 45.6638 35.7286C46.2679 35.7356 46.8722 35.7336 47.4762 35.7257C47.6751 35.7231 47.7209 35.8153 47.7186 35.9942C47.7105 36.6292 47.7173 37.2645 47.7096 37.8996C47.7075 38.0762 47.753 38.2115 47.8771 38.3468C48.1951 38.6936 48.4327 39.0998 48.6721 39.5031C48.7634 39.6568 48.7896 39.8165 48.7127 39.9799C48.6138 40.1898 48.6476 40.3828 48.765 40.5711C49.0363 41.0061 49.0812 41.4419 48.7835 41.8878C48.7219 41.98 48.665 42.0918 48.7424 42.209C48.8293 42.3409 48.9478 42.253 49.0553 42.2532C49.5635 42.2543 49.4756 42.1147 49.479 41.7631C49.4826 41.3986 49.4849 41.0338 49.4777 40.6694C49.474 40.4806 49.5542 40.4105 49.7388 40.4128C50.3637 40.4205 50.9888 40.4235 51.6138 40.4207C51.8117 40.4199 51.8965 40.4978 51.8923 40.699C51.8845 41.0738 51.9082 41.4501 51.8841 41.8236C51.8655 42.1111 51.9869 42.2187 52.2518 42.2367C52.3859 42.2459 52.519 42.2794 52.6508 42.3097C52.7228 42.3263 52.7934 42.3624 52.8 42.4485C52.8068 42.5391 52.7346 42.5744 52.6647 42.5962C52.4861 42.6521 52.3074 42.7096 52.1253 42.7515C51.9536 42.791 51.8846 42.8869 51.8876 43.0607C51.8931 43.3835 51.9028 43.7075 51.881 44.029C51.8612 44.3207 51.9837 44.4207 52.2598 44.4179C52.9472 44.4109 53.6351 44.4288 54.3221 44.4111C54.6182 44.4035 54.7136 44.5153 54.6906 44.7944C54.6726 45.0118 54.7107 45.2367 54.6726 45.449C54.6155 45.7679 54.7572 45.8203 55.0288 45.8109C55.4658 45.7957 55.9037 45.8065 56.3412 45.8102C56.4522 45.8111 56.5712 45.783 56.6705 45.869C56.7188 45.9851 56.6382 46.0678 56.5929 46.156C55.8817 47.5392 55.0554 48.8503 54.1165 50.09C54.042 50.1883 53.9564 50.2875 53.8548 50.354C53.4661 50.6081 53.2167 50.9567 53.022 51.378C52.8057 51.8461 52.3813 52.1657 52.0395 52.5412C51.6897 52.9255 51.2931 53.2669 50.9315 53.641C50.7489 53.8299 50.546 53.889 50.2901 53.8885C47.3735 53.8826 44.4568 53.8838 41.5401 53.8853C32.9881 53.8896 24.436 53.894 15.8839 53.9015C15.1868 53.9021 14.4902 53.9551 13.7921 53.9183C13.5972 53.908 13.4344 53.8738 13.2834 53.7337C11.0018 51.6171 9.12044 49.1905 7.68397 46.4308C7.31389 45.7198 7.21496 44.9035 7.0096 44.1033ZM8.09393 32.1216C8.19434 32.5834 8.37246 33.0149 8.60582 33.4242C8.94741 34.0234 9.37226 34.5644 9.78738 35.1122C10.1756 35.6245 10.4557 36.1908 10.6188 36.8123C10.6476 36.9223 10.7183 37.0496 10.5481 37.1947C10.0233 36.1574 9.13383 35.4479 8.39607 34.5986C8.24189 34.7258 8.2454 34.8817 8.21041 35.0171C7.94934 36.0274 7.80715 37.0598 7.72412 38.0958C7.66296 38.859 7.59755 39.6361 7.8911 40.3814C8.07615 40.8513 8.3481 41.2694 8.63941 41.6758C8.96777 42.1339 9.27999 42.6008 9.49847 43.1231C9.54733 43.2398 9.63906 43.3636 9.49171 43.5246C9.12816 43.3366 8.96118 42.9308 8.60393 42.6899C8.60935 42.7551 8.61013 42.7925 8.61585 42.8292C8.7413 43.6329 8.95762 44.4152 9.21255 45.1846C9.6584 46.5303 10.1913 47.8405 10.8893 49.079C11.2182 49.6626 11.6827 49.9756 12.377 49.8602C13.5187 49.6705 14.5825 49.2621 15.5967 48.7147C15.6391 48.6918 15.6846 48.6561 15.6612 48.575C15.2663 48.378 14.7581 48.3493 14.4842 47.8949C15.7537 48.1046 17.0099 48.135 18.2681 47.8913C19.5194 47.6489 20.7066 47.2035 21.9054 46.698C21.9032 46.9178 21.7828 46.9641 21.6912 47.0171C20.6969 47.5914 19.6782 48.1238 18.5536 48.386C17.6037 48.6074 16.6353 48.7514 15.7887 49.2847C15.6924 49.3453 15.5831 49.3853 15.4798 49.4349C15.5541 49.4824 15.6057 49.4853 15.657 49.482C17.7157 49.3469 19.6335 48.7416 21.4518 47.7787C23.0993 46.9064 24.6854 45.9225 26.356 45.0931C26.7796 44.8828 27.21 44.6864 27.6374 44.4836C27.3565 44.4678 27.0902 44.5019 26.8263 44.5495C25.3632 44.8134 23.9837 45.344 22.6031 45.8729C21.3889 46.338 20.1834 46.8388 18.8756 46.9859C18.5945 47.0176 18.3017 47.114 18.0058 47.0047C18.0579 46.8624 18.1486 46.8717 18.2291 46.8589C18.775 46.7724 19.309 46.6382 19.8329 46.4622C21.5015 45.9016 23.0915 45.1344 24.7651 44.5874C25.9912 44.1866 27.2079 43.746 28.521 43.7168C28.9857 43.7065 29.4452 43.6692 29.7013 43.1846C29.716 43.1568 29.7696 43.1496 29.8127 43.1293C29.9529 43.2686 29.894 43.4304 29.8905 43.5778C29.8872 43.719 29.8961 43.8329 30.0364 43.9245C31.2359 44.7076 32.5262 45.0615 33.9556 44.7734C34.0557 44.7533 34.1423 44.7555 34.219 44.8214C34.4069 44.9831 34.6303 45.1171 34.722 45.3622C34.7595 45.4624 34.8154 45.4881 34.9056 45.489C35.0931 45.4908 35.28 45.4934 35.4645 45.4468C35.8884 45.3397 36.0233 45.0664 35.8309 44.6726C35.6573 44.3173 35.4487 43.9784 35.3269 43.5995C35.2946 43.499 35.2121 43.3945 35.3075 43.2767C35.4577 43.2813 35.5113 43.4076 35.5871 43.4983C35.8007 43.7541 36.0101 44.0133 36.2183 44.2735C36.321 44.4019 36.4372 44.4628 36.5975 44.3799C36.8869 44.2303 37.0091 43.8154 36.8464 43.5308C36.6033 43.1059 36.3649 42.6783 36.1995 42.2158C36.1603 42.1063 36.0865 41.9822 36.2255 41.8814C36.3728 41.8998 36.4326 42.0184 36.5088 42.1135C36.7562 42.4222 37.0005 42.7333 37.2462 43.0434C37.3823 43.2151 37.5183 43.1984 37.6663 43.0528C37.9939 42.7308 38.0426 42.4458 37.8105 42.0496C37.5527 41.6095 37.2693 41.1835 37.0814 40.706C37.039 40.5983 36.9427 40.4806 37.0933 40.3771C37.2283 40.3849 37.2901 40.4919 37.367 40.572C37.6409 40.8575 37.9041 41.1537 38.1841 41.433C38.4459 41.694 38.7693 41.6484 38.973 41.3388C39.1731 41.0346 39.1495 40.7418 38.8774 40.4617C38.3826 39.9526 37.832 39.507 37.2649 39.0815C37.2 39.0328 37.1302 38.9791 37.0384 39.0162C36.8273 39.4061 36.8293 39.4094 36.4134 39.6625C36.2541 39.7595 36.2656 39.8829 36.3002 40.0392C36.467 40.7939 36.2716 41.1102 35.5228 41.3242C35.4951 41.3322 35.472 41.3563 35.4494 41.3711C35.4992 42.5404 35.4992 42.5404 34.6828 42.8935C34.6982 43.0215 34.7164 43.1549 34.7299 43.2888C34.7697 43.6853 34.5266 44.0569 34.1462 44.1326C32.8409 44.3924 31.6449 44.14 30.5773 43.3329C30.4926 43.2689 30.3746 43.2136 30.3932 43.0693C30.5218 42.9825 30.613 43.0812 30.7073 43.1314C31.2454 43.4183 31.8123 43.6044 32.4186 43.6929C32.855 43.7566 33.2929 43.7092 33.7272 43.7605C34.1266 43.8076 34.2894 43.7098 34.3462 43.3804C34.4152 42.9814 34.3392 42.8623 33.9383 42.7579C33.7572 42.7106 33.5729 42.6759 33.3912 42.6306C33.307 42.6096 33.1975 42.6164 33.1827 42.4723C33.3038 42.3829 33.4403 42.4322 33.5672 42.4417C33.8474 42.4625 34.1272 42.4917 34.4064 42.5239C34.6316 42.5499 34.8226 42.4857 34.9624 42.3095C35.0833 42.1569 35.1513 41.9754 35.0751 41.7839C34.9996 41.5944 34.8144 41.6435 34.6652 41.6419C34.0918 41.636 33.5225 41.5783 32.9531 41.5193C32.8653 41.5102 32.7577 41.5346 32.7124 41.3806C32.9099 41.2597 33.1387 41.2649 33.36 41.245C34.0129 41.1866 34.6687 41.1597 35.316 41.0444C35.584 40.9966 35.7804 40.8585 35.8849 40.6098C36.0507 40.2148 35.8842 39.9737 35.4622 40.0015C34.9434 40.0357 34.4257 40.0874 33.9069 40.1238C33.7191 40.1369 33.5232 40.1857 33.3241 40.0762C33.4348 39.8843 33.6161 39.8988 33.769 39.8667C34.5833 39.6955 35.3914 39.4935 36.2151 39.3687C36.4928 39.3266 36.5555 39.1269 36.5562 38.889C36.557 38.6348 36.37 38.6197 36.1867 38.6158C35.4476 38.6002 34.7085 38.5902 33.9695 38.5737C33.8435 38.5709 33.6985 38.6031 33.6103 38.4675C33.6594 38.3379 33.7702 38.3245 33.8641 38.2895C34.3486 38.1094 34.8531 38.0202 35.3657 38.053C35.7286 38.0763 35.9603 37.9507 36.0942 37.6226C36.085 37.6178 36.0749 37.6077 36.0668 37.6091C35.872 37.6417 35.6785 37.6867 35.4825 37.7074C34.3163 37.8307 33.1805 38.0543 32.1555 38.6674C32.0402 38.7365 31.9107 38.7821 31.7872 38.8374C30.2134 39.5422 28.5445 39.9588 26.9035 40.4629C24.334 41.2523 21.7229 41.5316 19.0424 41.2896C17.1165 41.1158 15.3126 41.5134 13.7242 42.6829C13.6567 42.7326 13.5856 42.8245 13.457 42.7151C13.6502 42.2602 14.0673 41.9856 14.4212 41.6224C13.8126 41.2796 13.5562 40.7483 13.4118 40.1409C13.2346 39.3952 13.273 38.5855 13.5404 38.3687C13.5736 38.7303 13.5901 39.0683 13.6382 39.4018C13.7467 40.1544 14.0445 40.7959 14.7381 41.1954C14.8883 41.2819 15.0176 41.2908 15.1758 41.2125C15.7489 40.9289 16.353 40.7368 16.9879 40.6523C17.2101 40.6228 17.3402 40.5125 17.408 40.2975C17.5525 39.8392 17.6364 39.3727 17.6901 38.8945C17.8406 37.5549 17.5231 36.3135 16.9555 35.1169C16.8706 34.9379 16.7546 34.8907 16.5541 34.9327C15.4693 35.1598 14.4957 35.591 13.7244 36.4134C13.6816 36.459 13.6378 36.5063 13.5538 36.4781C13.4914 36.3829 13.5612 36.3079 13.6072 36.231C13.7789 35.9438 13.9861 35.6844 14.212 35.4375C14.8471 34.7432 15.6558 34.31 16.505 33.9597C17.8179 33.4181 18.581 31.5671 18.2906 30.3308C18.1252 29.6272 17.8836 28.9553 17.6287 28.2838C17.546 28.066 17.4171 27.9184 17.1989 27.823C16.6987 27.6042 16.2992 27.2616 16.0358 26.7767C15.9613 26.6395 15.8513 26.5634 15.714 26.4994C14.6169 25.9872 13.4674 25.7566 12.2563 25.8237C12.0436 25.8355 11.8795 25.909 11.7288 26.0517C11.2587 26.497 10.9938 27.0597 10.8226 27.6671C10.2971 29.5314 10.5151 31.3513 11.1736 33.1423C11.2345 33.3081 11.3646 33.4606 11.2807 33.6679C10.5884 32.6636 10.2391 31.5317 10.0353 30.3404C9.82782 29.1276 9.93378 27.943 10.3543 26.7474C8.8434 27.6362 7.696 30.4579 8.09393 32.1216ZM34.6819 47.7168C33.0985 48.5387 31.4884 49.2919 29.7234 49.6477C29.5885 49.6749 29.445 49.7023 29.4488 49.8856C29.4562 50.2377 29.3951 50.6051 29.5645 50.9308C29.8258 51.4334 29.85 51.94 29.673 52.4686C29.647 52.5461 29.6465 52.6323 29.6351 52.7146C29.5749 53.1499 29.6011 53.1786 30.0363 53.1844C32.0356 53.2111 34.035 53.1841 36.0346 53.2177C38.0547 53.2517 40.0757 53.2264 42.0963 53.2347C42.3517 53.2358 42.5327 53.136 42.6846 52.9449C43.0883 52.4367 43.113 51.6935 42.7429 51.0683C42.4685 50.6048 42.053 50.2932 41.6018 50.0258C40.1036 49.1381 38.5225 48.4116 36.9547 47.6605C36.7192 47.5477 36.6181 47.4052 36.6476 47.1534C36.6654 47.0019 36.6885 46.8446 36.543 46.7128C35.9293 47.0438 35.3259 47.3694 34.6819 47.7168ZM29.6149 23.337C29.851 23.2763 30.0447 23.1293 30.2582 23.0226C30.4664 22.9184 30.6665 22.8954 30.8338 23.1074C30.7546 23.2512 30.6105 23.2334 30.5035 23.2854C30.3769 23.3469 30.3172 23.4437 30.314 23.582C30.3115 23.6941 30.3331 23.804 30.4499 23.8368C30.8053 23.9365 31.0608 24.1512 31.2972 24.4336C31.5244 24.7049 31.7582 24.6263 31.8564 24.2795C32.0347 23.6493 32.2408 23.0218 32.2994 22.3676C32.3483 21.8214 32.5945 21.441 33.0545 21.1556C33.4118 20.9339 33.4894 20.3057 33.2227 19.9812C33.0246 19.7401 32.8066 19.5155 32.6038 19.2782C32.5365 19.1994 32.4144 19.1384 32.479 18.9558C32.9379 19.1328 33.1731 19.5976 33.5825 19.8227C33.8731 19.271 34.1572 18.7543 33.5618 18.2511C33.4878 18.1885 33.4658 18.0677 33.4077 17.982C33.336 17.8766 33.339 17.7146 33.1887 17.6688C33.0167 17.7501 33.1709 17.9645 32.9844 18.0674C32.4451 17.7777 31.9768 17.3932 31.7159 16.7736C31.5078 16.9644 31.7336 17.1612 31.5839 17.3388C30.9524 17.2333 30.4871 16.7999 29.9785 16.373C29.9069 16.7238 30.0144 16.961 30.1332 17.191C30.213 17.3458 30.206 17.4491 30.0495 17.5577C29.5149 17.9284 28.9503 18.1936 28.2782 18.1323C28.0051 18.1074 27.8041 18.2245 27.6197 18.4176C27.1335 18.9268 26.8391 19.538 26.6091 20.1936C26.4917 20.5284 26.4931 20.8315 26.6388 21.1581C26.9221 21.7936 27.2292 22.4237 27.3144 23.1282C27.3463 23.3924 27.3775 23.6567 27.4134 23.9582C28.1285 23.6644 28.8567 23.5409 29.6149 23.337ZM22.0782 21.6097C22.3699 21.3273 22.6642 21.0476 22.9514 20.7607C23.021 20.6911 23.1422 20.5683 23.0498 20.4983C22.7483 20.2698 22.6456 19.9344 22.5309 19.5926C22.3073 19.6794 22.1185 19.7654 21.922 19.8266C21.0152 20.1088 20.0879 20.1929 19.1453 20.0801C18.903 20.0511 18.7407 20.1172 18.594 20.3256C18.0157 21.1475 17.2804 21.7952 16.389 22.2688C16.1944 22.3721 15.9608 22.4266 15.7978 22.6284C16.2344 23.063 16.6814 23.4678 17.0601 23.9372C17.1489 24.0474 17.2702 23.9987 17.3814 23.9929C18.5058 23.9336 19.4937 24.5376 19.9584 25.5655C20.0033 25.6649 20.0272 25.7806 20.1569 25.8685C20.0894 24.9956 20.071 24.1488 20.1781 23.3033C20.2834 22.4724 20.4014 21.6449 20.6804 20.8447C20.7194 21.1643 20.7079 21.478 20.6771 21.7899C20.5584 22.9937 20.5239 24.1953 20.616 25.4058C20.6633 26.0271 20.8249 26.5065 21.4222 26.783C21.6783 26.9015 21.856 27.1557 22.151 27.2747C22.151 27.2027 22.1601 27.1608 22.1496 27.1246C21.889 26.2255 21.6579 25.3161 21.3537 24.432C21.1199 23.7525 21.3122 22.1162 22.0782 21.6097ZM42.3605 42.4634C42.8646 42.2393 43.3256 41.9656 43.5987 41.4313C43.1963 41.3066 42.7818 41.287 42.5534 40.9143C42.6426 40.7999 42.7286 40.8354 42.8039 40.8584C43.1715 40.9708 43.5499 40.9639 43.919 40.9127C44.3369 40.8546 44.7451 40.85 45.1601 40.9206C45.4884 40.9765 45.8194 41.0044 46.1507 40.9139C46.5759 40.7978 46.82 40.5189 46.8097 40.1239C46.5748 40.1097 46.3374 40.1016 46.1013 40.0801C45.066 39.9857 44.1096 39.6661 43.2555 39.0643C43.1778 39.0095 43.0406 38.9622 43.1109 38.8298C43.1727 38.7133 43.2908 38.7584 43.391 38.7889C43.8327 38.9234 44.2873 38.9721 44.746 38.984C45.4005 39.001 45.3943 38.9978 45.3621 38.3377C45.3528 38.1483 45.2814 38.0808 45.0979 38.0835C44.692 38.0896 44.2849 38.101 43.8802 38.0775C43.5596 38.0588 43.2923 38.1523 43.0334 38.3273C42.4039 38.7526 41.7692 39.1704 41.1341 39.5872C40.9811 39.6875 40.8788 39.8259 40.779 39.9741C40.3763 40.5721 40.179 41.2497 39.993 41.9345C39.9475 42.102 39.9936 42.1827 40.1386 42.2544C40.8369 42.5996 41.5547 42.7321 42.3605 42.4634ZM43.2647 50.017C42.6065 49.3754 41.8143 48.9368 40.9969 48.5428C40.0504 48.0864 39.0926 47.6533 38.1447 47.1999C37.9802 47.1212 37.766 47.0694 37.7206 46.7499C42.5117 46.7233 47.2786 46.6431 52.0602 46.5262C51.8043 46.4331 51.5559 46.4976 51.3113 46.4962C48.7716 46.4811 46.2319 46.4663 43.6922 46.4569C41.683 46.4494 39.6738 46.4487 37.6646 46.4479C37.516 46.4478 37.3278 46.4058 37.2913 46.6289C37.2563 46.8431 37.2704 47.0494 37.499 47.1667C37.5453 47.1905 37.5927 47.212 37.6395 47.2348C38.1168 47.4668 38.5976 47.692 39.0707 47.9324C40.1838 48.4981 41.3159 49.0315 42.3545 49.731C43.0532 50.2015 43.5479 50.8231 43.6804 51.6865C43.7604 52.208 43.6491 52.6912 43.3828 53.1459C43.6048 53.2357 43.7328 53.1575 43.8231 52.9907C43.983 52.695 44.1006 52.3882 44.1102 52.0447C44.1323 51.2578 43.8171 50.6116 43.2647 50.017ZM23.3341 19.6856C23.6508 20.0774 23.9745 20.0977 24.319 19.7072C24.7864 19.1775 25.1984 18.6009 25.6285 18.0415C26.1287 17.3912 25.814 16.4596 25.0725 16.2278C24.4619 16.0369 23.844 16.3348 23.4824 17.008C23.0257 17.8584 23.0634 18.744 23.3341 19.6856ZM43.0943 45.755C43.6042 45.7552 44.114 45.7585 44.6238 45.7533C44.737 45.7521 44.9373 45.783 44.8873 45.5948C44.7883 45.2223 44.8611 44.8581 44.8994 44.4994C44.7529 44.4216 44.6481 44.4866 44.5436 44.521C44.2277 44.6253 43.9124 44.7319 43.5986 44.8425C42.6292 45.1841 41.6466 45.3248 40.6256 45.0937C40.4183 45.0468 40.1955 44.9093 39.9901 44.9988C39.5187 45.2042 39.0647 45.4493 38.6037 45.6784C40.0903 45.7871 41.5608 45.8106 43.0943 45.755ZM39.3328 34.4877C38.475 35.6459 37.6172 36.804 36.7588 37.9629C36.9885 38.2138 37.1328 38.1758 37.3042 37.9436C38.9097 35.7682 40.524 33.5994 42.1349 31.4279C42.35 31.138 42.3269 31.0693 41.9691 30.9184C41.1002 32.0949 40.2298 33.2733 39.3328 34.4877ZM47.8933 45.1357C47.8833 45.033 47.8823 44.9284 47.8618 44.8279C47.784 44.4464 47.6793 44.3579 47.2809 44.3472C47.0994 44.3423 46.971 44.2411 46.8397 44.1398C46.704 44.035 46.5614 43.9658 46.3811 43.9937C45.8297 44.0788 45.3862 44.6655 45.4615 45.2162C45.5154 45.6105 45.7187 45.788 46.1249 45.7913C46.4673 45.7941 46.8099 45.796 47.1523 45.7943C47.6551 45.7917 47.7816 45.6846 47.8933 45.1357ZM26.8038 38.2661C25.9245 37.5214 25.3878 36.5299 24.8612 35.5366C23.7746 33.487 22.7368 31.4098 21.3611 29.529C21.1438 29.2319 20.9163 28.9432 20.6268 28.709C20.8433 29.0876 21.0723 29.4562 21.305 29.8224C22.5283 31.7472 23.5832 33.7671 24.6728 35.7677C25.1057 36.5625 25.5688 37.3428 26.2192 37.9891C26.4135 38.1821 26.6309 38.3365 26.8868 38.4221C26.906 38.3969 26.9253 38.3718 26.9445 38.3467C26.9077 38.3273 26.871 38.3079 26.8038 38.2661ZM49.4776 43.6593C49.4779 43.5656 49.4783 43.4719 49.4785 43.3782C49.4793 42.7944 49.4793 42.7942 48.914 42.741C48.8958 42.7393 48.8759 42.7541 48.8325 42.7703C48.7418 43.1045 48.5215 43.3837 48.2967 43.6555C48.1467 43.8369 48.1435 43.9861 48.2714 44.1829C48.4692 44.4872 48.5439 44.8342 48.5163 45.1975C48.5033 45.3695 48.4726 45.5401 48.4442 45.7552C48.6756 45.7552 48.8817 45.7439 49.0861 45.758C49.3695 45.7776 49.4817 45.6556 49.4775 45.3761C49.4692 44.8245 49.4765 44.2726 49.4776 43.6593ZM50.0581 43.219C50.0602 43.8121 50.0716 44.4054 50.0603 44.9982C50.0552 45.2664 50.1422 45.3715 50.4209 45.3528C51.5119 45.2796 52.6051 45.3363 53.6972 45.3119C53.7799 45.3101 53.8635 45.3048 53.9446 45.2899C54.0145 45.2771 54.0463 45.2209 54.0445 45.1518C54.0426 45.0803 54.0013 45.0333 53.9314 45.0252C53.849 45.0157 53.7655 45.0139 53.6824 45.0135C52.7356 45.01 51.7887 45.0068 50.8418 45.0048C50.3904 45.0039 50.3777 44.9889 50.3782 44.5255C50.3794 43.4641 50.379 42.4028 50.3743 41.3415C50.3738 41.2182 50.4238 41.0368 50.213 41.0351C50.027 41.0336 50.0613 41.2013 50.0507 41.3173C49.9946 41.9305 50.0787 42.5434 50.0581 43.219ZM21.7798 34.1324C22.3274 35.8409 22.7175 37.5903 23.1083 39.3394C23.1228 37.1346 21.4756 31.6101 20.4591 30.4442C20.963 31.6613 21.3977 32.861 21.7798 34.1324ZM19.7089 32.1425C20.2361 34.3105 20.4814 36.522 20.7065 38.7364C20.821 35.8214 20.3796 33.005 19.2442 30.3127C19.4157 30.8987 19.5639 31.4933 19.7089 32.1425ZM46.0615 28.7027C45.5252 28.2413 44.9938 27.7743 44.4514 27.3203C43.9075 26.8651 43.3535 26.4229 42.6233 26.2951C41.7553 26.1432 40.8815 26.1962 40.0088 26.2173C39.9285 26.2192 39.8317 26.2315 39.7664 26.3588C39.9045 26.3588 40.0077 26.3582 40.111 26.3589C40.9045 26.3642 41.6876 26.4637 42.4623 26.6292C43.3095 26.8102 44.0051 27.2847 44.6866 27.7872C45.189 28.1575 45.6972 28.5198 46.2028 28.8857C46.2106 28.8753 46.2184 28.8649 46.2262 28.8544C46.1815 28.8119 46.1368 28.7694 46.0615 28.7027ZM16.7054 25.867C16.6496 25.6284 16.5939 25.3898 16.5348 25.1369C16.1331 25.6679 16.4505 26.5682 17.1685 27.0616C17.7819 27.4831 18.6967 27.6001 19.0198 27.0535C17.7895 27.1275 17.1796 26.824 16.7054 25.867ZM46.3066 37.5313C46.3057 37.2202 46.3063 36.9091 46.3028 36.598C46.3016 36.4863 46.3195 36.3509 46.152 36.3426C45.9716 36.3336 45.9636 36.4663 45.9635 36.5979C45.9625 37.4691 45.9605 38.3403 45.9616 39.2114C45.9617 39.3327 45.9417 39.4797 46.1323 39.4799C46.3222 39.4801 46.3044 39.3323 46.3052 39.2117C46.3085 38.6724 46.3066 38.1331 46.3066 37.5313ZM30.6884 46.2178C30.4255 46.5593 30.1625 46.9008 29.9036 47.237C30.196 47.5286 30.2338 47.5289 30.4512 47.2436C30.7276 46.8809 31.0011 46.5161 31.273 46.1501C31.4249 45.9456 31.6162 45.7669 31.7174 45.5063C31.4823 45.3665 31.2989 45.3398 31.1389 45.607C31.0171 45.8104 30.8577 45.9913 30.6884 46.2178ZM25.0617 11.7109C25.3576 11.5957 25.6536 11.4806 25.9734 11.3561C24.436 11.4067 23.0607 12.3977 22.6149 13.7369C23.2783 12.8862 24.0314 12.1671 25.0617 11.7109ZM48.6033 30.741C48.755 30.6093 48.8713 30.7106 48.9881 30.8007C49.2183 30.9785 49.4472 31.1581 49.6777 31.3355C49.7491 31.3904 49.8214 31.4226 49.8916 31.3281C49.9507 31.2485 49.9555 31.1748 49.8761 31.1093C49.5108 30.8085 49.1444 30.5089 48.7661 30.1989C48.1603 30.8544 47.6865 31.5429 47.2136 32.2325C47.6653 31.7456 48.117 31.2587 48.6033 30.741ZM47.361 41.831C47.0697 41.8601 46.7536 42.3264 46.8372 42.6035C46.89 42.7783 47.1036 42.85 47.2287 42.7098C47.5728 42.3237 47.9737 41.9856 48.2451 41.5372C48.3261 41.4034 48.4172 41.2644 48.322 41.0595C48.083 41.4291 47.9443 41.8709 47.361 41.831ZM26.0114 48.4698C26.4383 49.5241 26.9317 50.5227 28.0934 50.9631C27.1301 50.1994 26.5062 49.1752 25.9006 48.1318C25.9326 48.2298 25.9647 48.3279 26.0114 48.4698ZM23.5739 51.3921C23.5944 51.4056 23.5535 51.4881 23.6274 51.4398C23.6324 51.4366 23.6295 51.4198 23.6286 51.4095C23.5368 50.3841 23.446 49.3587 23.3513 48.3336C23.3431 48.2447 23.3366 48.1274 23.2059 48.1329C23.0792 48.1383 23.0732 48.2437 23.0753 48.3416C23.0766 48.404 23.0783 48.4667 23.0857 48.5286C23.1995 49.4785 23.3157 50.428 23.5739 51.3921ZM20.2353 51.7762C20.2909 51.0057 20.3465 50.2352 20.4024 49.4593C20.1621 49.4159 20.0627 49.4912 20.066 49.7125C20.0719 50.1067 20.0614 50.5012 20.0687 50.8954C20.0777 51.3903 20.038 51.8885 20.1473 52.4126C20.2396 52.2048 20.2261 52.0176 20.2353 51.7762ZM47.8587 39.3189C47.8211 39.2749 47.8039 39.1999 47.6956 39.2331C47.663 39.8823 47.6513 40.5462 47.2703 41.1463C47.5229 41.2119 47.6233 41.0993 47.6674 40.9587C47.8309 40.4376 48.372 39.9626 47.8587 39.3189ZM46.0068 42.2845C46.0086 42.6156 46.0095 42.9466 46.0125 43.2777C46.0136 43.393 46.0479 43.4854 46.1882 43.4795C46.326 43.4738 46.358 43.3812 46.3516 43.2655C46.3482 43.2039 46.3444 43.1398 46.3254 43.0819C46.1839 42.6508 46.2099 42.2272 46.3635 41.8045C46.3928 41.724 46.4524 41.6319 46.3594 41.5411C46.1085 41.5365 45.9748 41.6419 46.002 41.9132C46.0123 42.0158 46.0055 42.12 46.0068 42.2845ZM29.2708 25.8672C29.355 25.8987 29.4494 25.9692 29.5175 25.8578C29.5725 25.7678 29.5313 25.6735 29.4641 25.6027C29.3265 25.458 29.1632 25.3462 28.9675 25.3C28.6376 25.2223 28.1519 25.5471 28.1156 25.9139C28.4886 25.7621 28.8559 25.6495 29.2708 25.8672ZM24.5029 24.6066C24.0473 24.8644 23.6592 25.188 23.4584 25.6904C23.2699 26.1617 23.3555 26.6173 23.7007 26.9254C23.6716 26.6457 23.5935 26.3903 23.6333 26.1166C23.7227 25.5014 24.1069 25.0677 24.5029 24.6066ZM14.1633 24.9209C13.2614 24.6902 12.3671 24.6688 11.4853 25.023C12.5273 24.837 13.556 24.9638 14.6262 25.1743C14.4839 25.0245 14.3362 25.0002 14.1633 24.9209ZM19.0249 25.2576C18.592 24.8694 18.3472 24.757 18.05 24.8352C18.5834 25.1336 18.9883 25.5186 19.1577 26.1036C19.1779 26.1735 19.2294 26.2418 19.3186 26.2138C19.4189 26.1824 19.4245 26.0921 19.4069 26.0078C19.3508 25.7394 19.2387 25.4969 19.0249 25.2576ZM14.9495 23.8316C14.2222 23.4106 13.5738 23.2547 13.0932 23.4191C13.906 23.6222 14.6665 23.8278 15.4033 24.1205C15.2648 24.0322 15.1264 23.9438 14.9495 23.8316ZM24.5898 27.6138C24.6553 27.9023 24.7833 28.149 25.0753 28.3089C24.7129 27.6261 24.7071 26.9504 25.1077 26.2275C24.7091 26.6264 24.5643 27.0178 24.5898 27.6138ZM26.1196 27.8183C26.114 27.7559 26.1085 27.6936 26.0972 27.5674C25.8426 28.4363 26.1031 29.2386 26.7116 29.538C26.4068 29.0066 26.1322 28.4818 26.1196 27.8183ZM28.3107 29.2128C28.176 29.5803 28.109 29.9432 28.3868 30.2855C28.2061 29.5925 28.8013 28.9564 28.5218 28.2253C28.5073 28.5711 28.4373 28.8723 28.3107 29.2128ZM23.7339 23.7698C23.8304 23.6961 23.9363 23.632 24.0042 23.5162C23.2094 23.7192 22.5981 24.2801 22.7433 24.7435C22.9456 24.2746 23.3202 24.0329 23.7339 23.7698ZM48.0977 42.9507C48.1358 42.8745 48.196 42.8003 48.1171 42.6669C47.8764 43.0438 47.5538 43.2783 47.1695 43.4439C47.3257 43.7118 47.4866 43.7241 47.655 43.5288C47.804 43.356 47.9351 43.1678 48.0977 42.9507ZM45.3774 27.0627C45.4552 26.9624 45.5341 26.8603 45.4118 26.7409C45.3529 26.6834 45.2844 26.6227 45.1975 26.6867C45.1137 26.7484 45.0226 26.8347 45.071 26.9403C45.1175 27.0416 45.192 27.1663 45.3774 27.0627Z" fill="white"/>
<path d="M51.6731 39.3582C51.9293 39.4689 51.8389 39.6696 51.8173 39.8271C51.7942 39.9956 51.6253 39.9535 51.5077 39.9545C50.935 39.9596 50.3621 39.9522 49.7895 39.9622C49.5622 39.9661 49.4777 39.8823 49.4766 39.6519C49.4754 39.4104 49.5842 39.3491 49.8003 39.3516C50.4146 39.3588 51.029 39.3541 51.6731 39.3582Z" fill="white"/>
<path d="M11.6646 47.0944C10.8941 46.575 10.6994 45.7822 10.6205 44.9647C10.4928 43.6399 10.4187 42.31 10.3219 40.9822C10.3187 40.9389 10.3257 40.9004 10.3935 40.8638C10.5554 40.9791 10.5506 41.1779 10.592 41.3458C10.8212 42.2779 10.8787 43.2363 11.0149 44.1827C11.0713 44.5743 11.1367 44.9645 11.2593 45.3415C11.6366 46.502 12.3666 46.8853 13.5486 46.5687C14.4038 46.3397 15.1134 45.8535 15.811 45.3393C16.2215 45.0367 16.63 44.7311 17.0501 44.4425C17.1964 44.3419 17.3543 44.2289 17.5413 44.2453C17.5874 44.3046 17.5763 44.3473 17.5418 44.3723C16.8117 44.9014 16.2506 45.6104 15.5856 46.2083C14.9482 46.7815 14.2332 47.22 13.3752 47.3653C12.7891 47.4645 12.2122 47.4254 11.6646 47.0944Z" fill="white"/>
<path d="M16.5656 30.9472C16.7864 30.2026 16.8311 29.4642 16.8281 28.7114C17.2002 29.4006 17.1988 30.1385 17.0656 30.8738C16.8464 32.0846 16.2031 33.0386 15.1885 33.7498C15.7349 32.8649 16.3174 32.0014 16.5656 30.9472Z" fill="white"/>
<path d="M19.153 43.5771C19.8185 43.0853 20.5441 42.7447 21.287 42.4493C21.5149 42.3587 21.7989 42.4193 22.0534 42.3833C22.5788 42.309 23.1073 42.2792 23.6359 42.2512C23.7384 42.2457 23.87 42.2096 23.9332 42.3759C23.7528 42.5231 23.5271 42.5039 23.3213 42.5357C21.996 42.7403 20.7589 43.2329 19.5111 43.6914C19.4237 43.7235 19.3354 43.7639 19.2446 43.774C19.097 43.7904 19.0453 43.7282 19.153 43.5771Z" fill="white"/>
<path d="M29.6473 19.0601C30.1232 19.0612 30.569 19.0879 31.0128 19.1537C31.3802 19.2082 31.686 19.3808 31.9284 19.6493C32.2492 20.0046 32.5639 20.364 32.9072 20.6991C33.1572 20.9432 33.1253 21.0666 32.8099 21.1992C32.0343 21.5253 31.2583 21.8507 30.4784 22.1663C30.2842 22.2449 30.0752 22.325 29.8099 22.1696C30.0734 21.9808 30.3789 21.9377 30.6301 21.6812C29.994 21.281 30.0741 20.5042 29.6746 19.9538C30.3087 20.2316 30.8081 20.7562 31.5684 20.8713C31.1873 19.7544 30.1839 19.5326 29.2793 19.1806C29.3869 19.0302 29.5112 19.0742 29.6473 19.0601Z" fill="white"/>
<path d="M27.771 21.6076C28.2484 22.399 28.2316 22.6914 27.6795 23.3917C27.63 23.4545 27.5927 23.5383 27.471 23.5245C27.3819 23.3928 27.4717 23.2694 27.5233 23.1599C27.7384 22.7047 27.7184 22.2653 27.5034 21.8129C27.3032 21.3916 27.1298 20.9564 27.0797 20.4854C27.0684 20.3793 27.0167 20.2589 27.1738 20.1555C27.3144 20.6647 27.4835 21.1496 27.771 21.6076Z" fill="white"/>
<path d="M24.2928 18.4245C24.2392 18.6292 24.3413 18.7963 24.3336 18.9733C24.3284 19.0938 24.3022 19.214 24.1687 19.2433C24.0363 19.2725 23.9982 19.1501 23.9506 19.0605C23.7111 18.6102 23.7717 18.1128 24.0938 17.7874C24.3317 17.547 24.6251 17.5338 24.9285 17.5761C24.9918 17.2759 24.8494 17.0522 24.5898 17.026C24.3407 17.0009 24.16 17.2085 23.9174 17.2451C24.0078 16.9163 24.3528 16.6552 24.7036 16.6479C25.016 16.6414 25.2465 16.7838 25.3697 17.0726C25.5045 17.3888 25.4032 17.8717 25.1817 18.0598C25.0453 18.1756 24.8882 18.1484 24.7345 18.1378C24.5245 18.1234 24.3631 18.1781 24.2928 18.4245Z" fill="white"/>
</svg>
